<svg xmlns="http://www.w3.org/2000/svg" width="512" height="512">
    <g fill-rule="evenodd">
        <path fill="#40c057" d="M256 0c141.39 0 256 114.61 256 256S397.38 512 256 512C114.61 512 0 397.39 0 256S114.61 0 256 0"/>
        <path fill="#fbb479" d="M509.44 292.22c-16.762 118.32-114.4 210.61-235.18 219.12 4.52-13.602 10.634-29.802 18.322-45.413 18.489-37.547 32.426-54.045 32.426-54.045l-24.746-24.463s-37.83 62.863-67.982 50.631c-30.15-12.231-44.088-65.991-44.088-65.991l-20.339-22.61s-25.881 6.826-27.589-11.947c-1.707-18.775-6.542-38.4-15.93-71.111-9.386-32.71-17.635-60.018-17.635-60.018s-11.947 4.267-11.947-3.127c0-7.396 1.136-93.3 1.136-93.3s35.273-58.31 105.25-65.136c69.972-6.827 110.36 15.644 110.36 15.644s36.408 64.855 42.38 89.033-.853 24.463-.853 24.463l17.635 72.533 21.334 19.91s3.413-2.559 9.956.854 20.479 14.222 20.479 14.222 47.858-3.09 87.008 10.75"/>
        <path fill="#cb8f5d" d="M280.75 493.18c3.406-8.862 7.349-18.154 11.827-27.248 18.489-37.547 32.426-54.045 32.426-54.045l-24.746-24.463s-27.152 45.111-53.782 51.464c22.263-41.342 49.515-101.64 42.831-145.46-10.239-67.129-.284-40.533 1.706-41.529 1.991-.996 7.965-9.671 7.965-9.671s15.078-5.265 19.913-20.197c2.088-6.448 21.205-11.301 42.94-11.852l8.827 36.31 21.334 19.91s3.413-2.559 9.956.854 20.479 14.222 20.479 14.222 2.295-.149 6.289-.234c-4.72 34.037-18.323 69.997-33.594 74.197-22.195 6.103-83.895 128.56-114.37 137.74"/>
        <path fill="#491720" d="m302.97 390.1-2.705-2.675s-37.83 62.863-67.982 50.63c-30.15-12.23-44.088-65.99-44.088-65.99s43.377-5.541 70.4-48.492-9.102-127.71-9.102-127.71-19.627 6.256-33.279-5.121c-13.654-11.377-17.635-19.343-17.635-19.343s97.812-54.253 146.72-44.78c3.994 8.987 7.163 17.095 8.59 22.874 5.973 24.178-.853 24.463-.853 24.463l17.635 72.533s-16.496.86-22.184-1.132c-5.69-1.992-29.582-23.326-29.582-23.326s7.28-35.453-2.476-46.597-45.028-26.79-45.88-16.833c-.855 9.953 3.698 17.772 3.698 17.772s-12.23 20.058-6.542 42.53c5.688 22.47 31.288 23.324 31.288 23.324s17.03 38.149 11.949 94.435c-2.312 25.59-5.343 42.55-7.964 53.439"/>
        <path fill="#f2e2d5" d="M509.44 292.22c-16.762 118.32-114.4 210.61-235.18 219.12 4.52-13.602 10.634-29.802 18.322-45.413 18.489-37.547 32.426-54.045 32.426-54.045l-24.746-24.463s20.901-87.178 91.734-121.03c.422-.202.892-.4 1.333-.603 1.552-.467 4.45-.72 8.622 1.457 6.543 3.413 20.48 14.222 20.48 14.222s47.857-3.091 87.007 10.749"/>
        <path fill="#e4beac" d="M509.44 292.22a254.2 254.2 0 0 1-15.713 58.886 170 170 0 0 0-15.538-17.013c-38.684-36.976-77.938-26.167-77.938-26.167l-12.842-39.216c1.51-.794 3.033-1.57 4.589-2.315.422-.203.892-.401 1.333-.603 1.552-.468 4.45-.72 8.622 1.456 6.543 3.413 20.48 14.222 20.48 14.222s47.857-3.09 87.007 10.75"/>
        <path fill="#f2e2d5" d="M106.7 206.38s-11.947 4.267-11.947-3.127c0-7.396 1.136-93.3 1.136-93.3s35.273-58.31 105.25-65.136c69.972-6.827 110.36 15.644 110.36 15.644s36.408 64.855 42.38 89.033c4.364 17.659 1.898 22.57.252 23.937l-39.36 2.091s-10.668-13.086-25.032-9.387c-14.364 3.697-15.502 10.239-15.502 10.239s-8.534-1.85-67.698.426c-59.166 2.275-100.41 23.61-100.41 23.61z"/>
        <path fill="#e4beac" d="M201.18 44.808c69.943-6.812 110.32 15.649 110.32 15.649s36.408 64.855 42.381 89.033c4.363 17.659 1.897 22.57.251 23.937l-39.36 2.092s-10.668-13.086-25.032-9.388c-14.364 3.697-15.502 10.24-15.502 10.24s-3.637-.787-22.59-.702a158.4 158.4 0 0 0-3.291-25.894c-8.563-40.48-32.304-80.69-47.174-104.97"/>
    </g>
</svg>
