<svg xmlns="http://www.w3.org/2000/svg" width="48" height="48">
    <rect width="48" height="48" fill="#ECF9EE" rx="6" ry="6"/>
    <path fill="#491720" d="m35.36 34.28-.32-1.04 2.56-1.48q1.8-1.04 3-1.92t1.96-1.64q1.24-1.28 1.72-2.52t.88-2.76l.96-3.52 1.16.24-1.08 5.32q-.76 3.64-1.6 5.36t-1.76 2.52q-.52.48-1 .68-.44.16-1.12.24zm-10.68-9.8q0-.28.16-1 .2-.72.48-1.64.28-.88.6-1.64.36-.76.64-1.12h.08q.96-.04 2.08-.44-1.08-.4-1.56-1.24-.48-.88-.48-2 0-1.16.48-2.6.52-1.44 1.88-3.28L31.8 5.8l.6.08q-.04.88.92 1.76T35.28 9l3.2 1.56q1.16.56 1.6 1.4t.44 1.84-.32 2.12-1 1.8q-.56.6-1.4.88-.84.24-1.76.24h-3.48q-2.4 3.24-4.48 4.44t-3.32 1.2zm6.6-8.72q1.08 0 1.88-.8t.8-1.92q0-1.08-.8-1.88t-1.88-.8q-1.12 0-1.92.8t-.8 1.88q0 1.12.8 1.92t1.92.8m6.56-2.44-2.4-1.16q0 .8-.28 1.76t-.8 1.92q.36 0 .72.04h.76q.96 0 1.72-.04.76-.08 1.32-.28.16-.32.16-.64 0-.44-.28-.84-.24-.44-.92-.76m-27 19.44q.16-.6.6-1.6.48-.96 1.08-2.08.64-1.12 1.28-2.2.68-1.08 1.2-1.88 1.88-2.92 3.4-4.32 1.56-1.36 2.8-1.76 1.28-.44 2.32-.44 1.08 0 1.88.32.84.28 1.16.28.16 1.2-.16 2.36-.28 1.16-.8 1.96-.48.84-.92 1.08-.2 0-.92-.2t-1.68-.2q-1.6 0-3.4.88-1.76.88-3.44 3.44-.96 1.44-2.08 2.72-1.08 1.32-2.32 1.64m13.32 7.96h-.36q-.16-.04-.36-.08-1.6-.44-2.4-1.32-.76-.92-.76-1.76 0-.72.36-1.28.4-.6.68-.96l1.48-1.92h.2q.6 1.04 1.44 1.68t2.16.92q.72.12.72.6 0 .28-.32.72l-2 2.92q-.2.28-.4.4-.16.08-.44.08M.84 42.2l-.12-.64q2-1.04 3.92-2.72 1.92-1.64 3.44-3.56 2.6-3.32 4.44-6.44 1.88-3.16 3.76-5.52 1.24-1.56 2.92-2.76 1.68-1.24 3.76-1.24 1.04 0 2.12.36-.84 2.6-2.56 3.92-1.4-.08-2.56.48t-2.04 1.36q-.84.76-1.4 1.36-1.36 1.48-2.52 3.36-1.12 1.88-2.52 3.96-1.36 2.12-3.52 4.28-.56.56-1.68 1.4-1.08.88-2.48 1.56-1.44.72-2.96.84" aria-label="رهبر"/>
</svg>
