<?xml version="1.0" standalone="no"?>
<!DOCTYPE svg PUBLIC "-//W3C//DTD SVG 20010904//EN"
 "http://www.w3.org/TR/2001/REC-SVG-20010904/DTD/svg10.dtd">
<svg version="1.0" xmlns="http://www.w3.org/2000/svg"
 width="700.000000pt" height="700.000000pt" viewBox="0 0 700.000000 700.000000"
 preserveAspectRatio="xMidYMid meet">
<metadata>
Created by potrace 1.14, written by Peter Selinger 2001-2017
</metadata>
<g transform="translate(0.000000,700.000000) scale(0.100000,-0.100000)"
fill="#000000" stroke="none">
<path d="M4510 5983 c-279 -377 -351 -477 -406 -565 -141 -227 -208 -435 -209
-648 0 -147 6 -178 59 -290 29 -62 110 -141 176 -172 34 -17 49 -28 40 -32
-31 -10 -85 -26 -95 -28 -5 -1 -34 -7 -62 -14 -79 -18 -184 -15 -256 8 -253
82 -416 82 -654 2 -182 -60 -412 -230 -582 -429 -61 -72 -226 -297 -311 -425
-46 -69 -122 -183 -170 -255 -47 -71 -140 -218 -204 -325 -96 -158 -257 -406
-363 -560 -46 -66 -253 -343 -307 -410 -194 -241 -502 -532 -746 -707 -94 -66
-260 -169 -292 -179 -17 -5 -19 -12 -15 -50 2 -24 7 -47 11 -51 11 -11 154 14
246 42 120 38 302 128 420 208 245 167 463 373 688 650 78 95 319 452 451 667
232 376 411 613 590 781 141 134 197 167 381 229 135 45 188 54 330 54 119 0
158 -5 250 -30 104 -28 217 -23 322 14 117 41 273 121 383 196 115 78 350 311
470 468 71 94 95 118 115 118 14 1 158 2 320 4 307 4 314 4 420 36 181 54 324
226 365 438 2 13 7 32 10 42 23 71 28 268 10 346 -31 135 -102 235 -218 308
-31 20 -59 36 -61 36 -2 0 -127 60 -278 134 -281 137 -364 189 -480 295 -68
63 -127 159 -130 212 -2 36 -17 49 -57 49 -36 0 -40 -4 -161 -167z m190 -521
c254 -99 331 -422 150 -625 -74 -84 -157 -125 -266 -132 -274 -19 -485 255
-398 517 17 52 66 123 118 170 35 32 120 77 169 88 57 13 169 4 227 -18z m629
-313 c80 -39 169 -82 197 -96 100 -49 164 -137 164 -226 0 -90 -12 -101 -144
-127 -56 -12 -449 -20 -507 -12 l-27 4 30 60 c65 132 124 335 123 426 0 23 4
42 9 42 5 0 75 -32 155 -71z"/>
<path d="M6705 4098 c-10 -40 -20 -77 -21 -83 -14 -68 -147 -527 -186 -643
-92 -273 -212 -435 -478 -647 -142 -114 -527 -365 -559 -365 -6 0 -11 -4 -11
-8 0 -4 -19 -18 -42 -30 -24 -12 -70 -37 -103 -56 -33 -20 -90 -53 -127 -73
-75 -42 -72 -34 -39 -138 15 -46 19 -50 46 -49 37 1 191 14 225 19 14 2 59 7
100 10 41 3 91 8 110 10 19 2 64 7 100 10 36 3 81 8 100 10 19 2 60 7 91 10
150 14 227 43 315 117 194 165 336 449 448 896 36 145 114 506 132 612 3 14
11 57 20 95 8 39 17 81 19 95 3 14 7 36 10 50 13 60 16 78 27 133 5 32 8 60 6
62 -3 3 -152 35 -163 35 0 0 -9 -33 -20 -72z"/>
<path d="M3220 1994 c-226 -293 -261 -356 -261 -460 0 -73 17 -128 62 -199 69
-109 163 -179 314 -234 141 -51 231 -52 279 -5 19 20 315 443 350 503 5 7 12
29 17 49 12 53 -23 82 -136 111 -101 27 -197 68 -261 112 -61 42 -153 138
-194 203 -19 31 -42 56 -50 56 -8 0 -62 -62 -120 -136z"/>
</g>
</svg>
