<svg xmlns="http://www.w3.org/2000/svg" role="img" aria-label="RUET Tablighi Brothers" viewBox="0 0 480 48" width="480"
    height="48" fill="currentColor" style="max-width: 100%; height: auto;">
    <path
        d="m19.09 24.899-1.28-2.36q3.92-1.24 6.44-2.56 2.56-1.32 4-2.64t2-2.6q.6-1.32.6-2.52 0-1.08-.4-2.12t-1.24-1.72q-.84-.72-2.2-.72-1.4 0-3.08.8-1.64.8-3.04 2.48-1.4 1.68-2.2 4.28l-.8-2.56q.84-2.52 2.16-4.28 1.36-1.8 2.96-2.96 1.64-1.16 3.24-1.72 1.6-.56 3-.56 2.16 0 3.68.92t2.32 2.44q.8 1.52.8 3.48 0 3.12-1.72 5.84-1.68 2.68-5.4 4.96-3.72 2.24-9.84 4.12zm-4.56 9.84q.12-4.04.12-7.88.04-3.88-.08-7.56-.08-3.68-.36-7.16-.24-3.48-.64-6.76l6.08-.96q.12 3.56.2 6.68.08 3.12.08 5.96t-.04 5.64q-.04 2.8-.2 5.68-.12 2.88-.28 6.16zm16.16.4q-.56-3.16-1.92-5.56-1.32-2.4-3.36-3.88-2-1.52-4.64-1.84l1.6-2.72q2.4.48 4.6 1.28 2.24.8 4.12 2.24 1.92 1.44 3.36 3.8 1.48 2.32 2.36 5.92zm22.8-.28q-2.76 0-4.84-1.56-2.04-1.56-3.52-4.16-1.44-2.6-2.4-5.8-.92-3.24-1.4-6.6-.48-3.4-.6-6.48-.12-3.12.04-5.4l6.04-.92q-.12.76-.2 2.64-.08 1.88 0 4.44.08 2.52.32 5.36.28 2.8.8 5.52.56 2.72 1.44 4.96.88 2.2 2.12 3.52 1.28 1.32 3 1.32 2 0 3.36-1.32 1.4-1.36 2.24-3.64.88-2.32 1.32-5.16.44-2.84.6-5.84.16-3.04.08-5.88-.04-2.84-.2-5.08l2.76 7.2q-.04 1.96-.16 4.4-.12 2.4-.48 5-.32 2.56-1.04 4.96-.68 2.4-1.88 4.32-1.2 1.92-3 3.08-1.8 1.12-4.4 1.12zm8.48-.16q.32-4.2.4-7.84.12-3.64.08-7.08-.04-3.48-.24-7.12-.2-3.68-.52-7.88l6.04-.92q.12 3.72.12 7.32.04 3.56-.08 7.2t-.36 7.48q-.24 3.8-.68 8.04zm13.2-.76q.16-2.92.2-5.88.08-2.96.04-5.92 0-3-.12-5.88-.08-2.92-.28-5.72t-.52-5.44l5.96.12q.16 3.4.2 6.28.04 2.84 0 5.44-.04 2.56-.16 5.12-.08 2.52-.24 5.24-.16 2.72-.36 5.92zm19.72.8q-1.64 0-4.12-.08-2.44-.04-5.24-.12-2.8-.12-5.52-.28-2.72-.16-4.84-.32l1.84-2.92q1.64.2 3.8.24 2.16 0 4.56-.08 2.4-.12 4.8-.32 2.44-.2 4.72-.44Zm-4.64-12.8q-2.64-.32-5.48-.32-2.8-.04-6.4.24v-2.88q3.2-.44 6.24-.6 3.08-.16 5.52-.2Zm3.92-13.76q-2.24-.36-4.68-.48-2.4-.12-4.64-.04-2.24.04-4.08.16-1.84.12-2.88.2l-3.4-2.92q1.36-.16 3.36-.32 2.04-.2 4.32-.36 2.32-.16 4.6-.28 2.28-.16 4.2-.24 1.96-.12 3.2-.16zm14.24 26.76q.2-5.36.2-10.16t-.28-9.56q-.24-4.76-.88-9.96l6.16-1.04q.2 3.72.24 7.48.04 3.76-.04 7.56-.08 3.76-.32 7.52-.2 3.72-.52 7.36zm14.52-27.36-24.64-.28-.16-2.76 24.84-1zm22.36 27.36q.2-5.36.2-10.16t-.28-9.56q-.24-4.76-.88-9.96l6.16-1.04q.2 3.72.24 7.48.04 3.76-.04 7.56-.08 3.76-.32 7.52-.2 3.72-.52 7.36zm14.52-27.36-24.64-.28-.16-2.76 24.84-1zm5.28 27.52q-1.68 0-3.16-.72-1.48-.76-2.36-2.16-.88-1.44-.88-3.48 0-2.28 1.28-4.44 1.32-2.16 4.36-4.04t8.08-3.36l1.36 2.68q-3.12.68-5.08 1.68-1.96.96-3 2.04-1.04 1.04-1.44 2.08-.36 1.04-.36 1.84 0 1.56.8 2.72.8 1.12 2.32 1.12 1.36 0 2.64-.84 1.32-.88 2.16-2.52.84-1.64.84-4l2.32-1.72q-.24 3.56-1.2 6.04-.92 2.48-2.36 4.04-1.4 1.56-3.04 2.32-1.64.72-3.28.72zm8.48-.04q-.28-1.64-.52-3.88-.24-2.28-.36-4.64t-.2-4.44q-.08-2.08-.12-3.48 0-1.44.04-1.72l5.64-.6q-.6 5.08-.68 9.4-.04 4.28.2 8.44zm20.84-.08q-.84 0-2.08-.16-1.24-.16-2.44-.36-1.2-.2-2-.4l-2.04-3.6q.88.36 2.16.72 1.28.36 2.52.6t2 .24q2.64 0 4.2-.92 1.56-.96 2.2-2.48.68-1.52.68-3.2 0-.76-.2-1.64-.2-.92-.68-1.72-.48-.84-1.24-1.36-.76-.56-1.88-.56-1 0-2.28.68-1.28.64-2.52 2.04-1.2 1.4-2.08 3.68-.84 2.24-1.04 5.44l-1.4-1.52q0-3.36.76-5.76.76-2.44 2.04-4.08 1.28-1.68 2.8-2.64 1.52-.96 3-1.36 1.52-.44 2.76-.44 1.92 0 3.6.88 1.72.84 2.8 2.68 1.08 1.8 1.08 4.72 0 2.52-.84 4.48-.84 1.92-2.36 3.28-1.48 1.36-3.4 2.08-1.92.68-4.12.68zm-6.52-.92-4.2-.8q.44-7.6.32-15.16-.08-7.6-.68-14.8l5.72-.92q.24 7.52 0 15.44-.2 7.92-1.16 16.24zm25.72.28-4.24.4q.2-3.8.28-7.84.08-4.04.04-8.12-.04-4.08-.2-8t-.48-7.52l5.72-.88q.24 7.52 0 15.6-.2 8.04-1.12 16.36zm6.16-20.72q-.04-1.48-.28-2.76-.2-1.32-.36-2.68l5.36-.76q.28 1.32.44 2.88.16 1.56.12 2.92zm4.68 20.68-4.08.4q.24-4.36.16-9.04-.04-4.68-.64-9.2l5.52-.64q.16 3.2.08 6.08-.04 2.88-.28 5.88-.24 2.96-.76 6.52zm6.08 10.64 1.52-4.6q3.48 1.36 5.92 1.48 2.44.12 3.92-.76 1.52-.88 2.2-2.52.68-1.6.56-3.76-.08-1.76-.2-3.6-.08-1.84-.28-4-.16-2.16-.44-4.84-.24-2.72-.64-6.24l5.4-.16q.08 1.4.08 3.28.04 1.84.04 3.96.04 2.12.04 4.28 0 2.12-.04 4.08-.12 4.44-1.44 7.4-1.28 3-3.64 4.64-2.36 1.64-5.64 1.96-3.28.32-7.36-.6zm5.4-9.84q-1.68 0-3.16-.72-1.48-.76-2.36-2.16-.88-1.44-.88-3.48 0-1.68.68-3.44.72-1.8 2.28-3.48 1.6-1.68 4.2-3.12 2.6-1.48 6.4-2.6l1.44 2.68q-3.12.68-5.08 1.8-1.92 1.08-2.96 2.32-1 1.2-1.4 2.36-.36 1.16-.36 1.96 0 1.56.8 2.56t2.32 1q1.36 0 2.76-.76 1.44-.8 2.4-2.36.96-1.6.92-3.96l2.36-1.72q-.24 3.56-1.28 6.04-1 2.48-2.52 4.04t-3.24 2.32q-1.68.72-3.32.72zm22.6-.76-4.2.4q.2-3.8.28-7.84.08-4.04.04-8.12-.04-4.08-.2-8t-.48-7.52l5.72-.88q.24 7.52 0 15.6-.2 8.04-1.16 16.36zm14.84.64-5.64-.44q.56-2.28.84-4.52.28-2.28.2-4.28-.04-2-.44-3.56-.36-1.56-1.12-2.44-.72-.88-1.92-.88t-2.32 1.2q-1.12 1.16-2.04 3.28-.88 2.08-1.52 4.92-.6 2.8-.88 6.08l-2.76-4.96q.16-1.6.72-3.4.6-1.84 1.52-3.6.92-1.8 2.16-3.24 1.28-1.48 2.84-2.36 1.6-.88 3.48-.88 2.24 0 3.68 1.24 1.48 1.2 2.28 3.24.8 2.04 1.08 4.52.32 2.48.24 5.12-.08 2.64-.4 4.96zm5.32-21.36q-.04-1.48-.28-2.76-.2-1.32-.36-2.68l5.36-.76q.28 1.32.44 2.88.16 1.56.12 2.92zm4.68 20.68-4.08.4q.24-4.36.16-9.04-.04-4.68-.64-9.2l5.52-.64q.16 3.2.08 6.08-.04 2.88-.28 5.88-.24 2.96-.76 6.52zm21.48-12-1.28-2.36q3.92-1.12 6.44-2.2 2.56-1.12 4-2.28 1.48-1.2 2.08-2.36.6-1.16.6-2.36 0-1.28-1-2.16-1-.92-2.68-.92-1.4 0-3.08.6-1.68.6-3.16 1.96-1.44 1.32-2.24 3.52l-.92-2.52q.76-2.08 2.04-3.64 1.32-1.56 2.92-2.6 1.6-1.04 3.24-1.56 1.68-.52 3.2-.52 3.24 0 4.84 1.8 1.64 1.8 1.64 4.68 0 2.8-1.64 5.24-1.6 2.4-5.24 4.32-3.64 1.92-9.76 3.36zm-4.56 12.44q.12-4.04.12-7.88.04-3.88-.08-7.56-.08-3.68-.36-7.16-.24-3.48-.64-6.76l6.08-.96q.12 3.56.2 6.68.08 3.12.08 5.96t-.04 5.64q-.04 2.8-.2 5.68-.12 2.88-.28 6.16zm4.88-.2-1.92-3q4.12 0 7.04-.56t4.76-1.52q1.84-.96 2.68-2.12.84-1.2.84-2.44 0-1.72-.96-2.6-.96-.88-2.52-1.12-1.56-.24-3.44-.04-1.84.2-3.68.68-1.8.44-3.24.92l.16-1.84q2.4-1.4 5.04-2.24 2.64-.84 5.16-1 2.52-.2 4.56.36 2.04.56 3.24 2 1.24 1.4 1.24 3.8 0 2.96-1.96 5.32-1.96 2.36-6.16 3.8-4.16 1.44-10.84 1.6zm29.24.24-1.44-5.24q.16-3.44 1.16-6.28 1.04-2.84 2.72-4.68 1.68-1.88 3.8-2.48 2.12-.6 4.4.48l-.92 5.32q-2.56-1.2-4.32-.92-1.72.28-2.8 1.96-1.08 1.68-1.68 4.68-.6 2.96-.92 7.16zm0 0h-5.36q.44-3.12.64-6.08t.12-5.88q-.04-2.92-.36-5.88l4.24-.88q.4 2.68.6 5.04.24 2.32.28 4.52.08 2.16 0 4.44-.04 2.24-.16 4.72zm21.5.24q-3.12 0-5.2-1.36t-3.12-3.52q-1.04-2.16-1.04-4.52 0-2.4 1.04-4.6 1.04-2.2 3.12-3.6t5.12-1.4q3.28 0 5.44 1.4 2.16 1.36 3.24 3.52 1.12 2.16 1.12 4.56 0 2.36-1.12 4.56-1.08 2.2-3.24 3.6-2.12 1.36-5.36 1.36zm.08-2.56q1.68 0 2.68-.92 1-.96 1.44-2.4.48-1.48.48-3.08 0-1.44-.56-2.72-.52-1.28-1.56-2.08-1-.84-2.56-.84-1.44 0-2.48.84t-1.6 2.16q-.52 1.28-.52 2.72 0 1.68.6 3.16.6 1.44 1.64 2.32 1.08.84 2.44.84zm26.52 2.12q-3.48.24-5.76-.52-2.28-.8-3.64-2.48-1.32-1.68-1.96-4.12-.6-2.48-.72-5.6-.12-3-.16-5.68-.04-2.72-.04-5.24t.04-5.08l5.8-.76q-.4 3.56-.76 6.68-.32 3.08-.56 5.92-.24 2.84-.28 5.64-.04 2.56.96 3.92 1 1.32 2.88 1.76 1.88.4 4.44.16zm-1.08-14.84q-3.12-.68-6.6-.64-3.48.04-6.8.6l-.52-2.6q3.6-.8 7.4-1 3.84-.2 7.04.16zm9.72 14.6-4.2.4q.2-3.8.28-7.84.08-4.04.04-8.12-.04-4.08-.2-8t-.48-7.52l5.72-.88q.24 7.52 0 15.6-.2 8.04-1.16 16.36zm14.84.64-5.64-.44q.56-2.28.84-4.52.28-2.28.2-4.28-.04-2-.44-3.56-.36-1.56-1.12-2.44-.72-.88-1.92-.88t-2.32 1.2q-1.12 1.16-2.04 3.28-.88 2.08-1.52 4.92-.6 2.8-.88 6.08l-2.76-4.96q.16-1.6.72-3.4.6-1.84 1.52-3.6.92-1.8 2.16-3.24 1.28-1.48 2.84-2.36 1.6-.88 3.48-.88 2.24 0 3.68 1.24 1.48 1.2 2.28 3.24.8 2.04 1.08 4.52.32 2.48.24 5.12-.08 2.64-.4 4.96zm19.96-.36q-2.24.24-4.52.16-2.24-.08-4.24-.6t-3.56-1.56q-1.52-1.04-2.4-2.72-.88-1.68-.88-4.12 0-2.4.88-4.16.88-1.76 2.36-2.92 1.52-1.2 3.32-1.76 1.84-.6 3.68-.6 2.8 0 4.68 1.04 1.88 1 2.84 2.52t.92 3.12q0 1.32-.64 2.6-.6 1.28-2.04 2.12-1.4.8-3.88.8-.88 0-2.08-.16-1.16-.16-2.4-.44-1.2-.32-2.28-.72-1.08-.44-1.8-.96l1.04-1.76q.76.48 2 .84 1.28.36 3.12.36 1.16 0 2.12-.32 1-.36 1.6-1.12.6-.8.6-1.96 0-.72-.32-1.44t-1.08-1.2q-.72-.52-2.04-.52t-2.56.92q-1.2.88-2 2.28-.8 1.36-.8 2.92 0 2.16.8 3.68.84 1.48 2.32 2.32 1.48.8 3.44.96 1.96.16 4.28-.32zm12.68.16-1.44-5.24q.16-3.44 1.16-6.28 1.04-2.84 2.72-4.68 1.68-1.88 3.8-2.48 2.12-.6 4.4.48l-.92 5.32q-2.56-1.2-4.32-.92-1.72.28-2.8 1.96-1.08 1.68-1.68 4.68-.6 2.96-.92 7.16zm0 0h-5.36q.44-3.12.64-6.08t.12-5.88q-.04-2.92-.36-5.88l4.24-.88q.4 2.68.6 5.04.24 2.32.28 4.52.08 2.16 0 4.44-.04 2.24-.16 4.72zm19.96.6q-1.92 0-3.92-.32t-3.6-.8l.32-3.44q.92.36 1.92.68 1.04.32 2.16.56 1.16.2 2.32.2t1.84-.36q.72-.4 1.04-.96.32-.6.32-1.12 0-.88-.64-1.48-.64-.64-1.64-1.16-1-.52-2.16-1.08-1.12-.6-2.12-1.32-1-.76-1.64-1.8-.64-1.08-.64-2.64 0-1.6.8-2.64.84-1.08 2.2-1.6 1.36-.52 3-.52 1.96 0 4.04.8 2.12.76 3.64 2.16l-1.6 2.76q-1.12-1.2-2.48-1.68-1.32-.52-2.4-.52-1.04 0-1.68.6-.6.6-.6 1.48 0 1.04.68 1.76t1.72 1.2q1.08.48 2.28.96 1.2.48 2.24 1.12 1.08.6 1.76 1.56.68.96.68 2.44 0 1.96-1.12 3.08-1.08 1.12-2.84 1.6-1.76.48-3.88.48z" />
</svg>